HIERARCHY
ROOT Hips
{
  OFFSET 0 0 0
  CHANNELS 6 Xposition Yposition Zposition Zrotation Xrotation Yrotation
  JOINT Spine
  {
    OFFSET 0 10 0
    CHANNELS 3 Zrotation Xrotation Yrotation
    JOINT Neck
    {
      OFFSET 0 30 0
      CHANNELS 3 Zrotation Xrotation Yrotation
      JOINT Head
      {
        OFFSET 0 8 0
        CHANNELS 3 Zrotation Xrotation Yrotation
        End Site
        {
          OFFSET 0 10 0
        }
      }
    }
    JOINT LeftArm
    {
      OFFSET 15 30 0
      CHANNELS 3 Zrotation Xrotation Yrotation
      JOINT LeftForeArm
      {
        OFFSET 25 0 0
        CHANNELS 3 Zrotation Xrotation Yrotation
        JOINT LeftHand
        {
          OFFSET 25 0 0
          CHANNELS 3 Zrotation Xrotation Yrotation
          End Site
          {
            OFFSET 10 0 0
          }
        }
      }
    }
    JOINT RightArm
    {
      OFFSET -15 30 0
      CHANNELS 3 Zrotation Xrotation Yrotation
      JOINT RightForeArm
      {
        OFFSET -25 0 0
        CHANNELS 3 Zrotation Xrotation Yrotation
        JOINT RightHand
        {
          OFFSET -25 0 0
          CHANNELS 3 Zrotation Xrotation Yrotation
          End Site
          {
            OFFSET -10 0 0
          }
        }
      }
    }
  }
  JOINT LeftUpLeg
  {
    OFFSET 10 -10 0
    CHANNELS 3 Zrotation Xrotation Yrotation
    JOINT LeftLeg
    {
      OFFSET 0 -35 0
      CHANNELS 3 Zrotation Xrotation Yrotation
      JOINT LeftToe
      {
        OFFSET 0 -40 0
        CHANNELS 3 Zrotation Xrotation Yrotation
        JOINT LeftToeEnd
        {
          OFFSET 0 0 0
          CHANNELS 3 Zrotation Xrotation Yrotation
          End Site
          {
            OFFSET 0 0 15
          }
        }
      }
    }
  }
  JOINT RightUpLeg
  {
    OFFSET -10 -10 0
    CHANNELS 3 Zrotation Xrotation Yrotation
    JOINT RightLeg
    {
      OFFSET 0 -35 0
      CHANNELS 3 Zrotation Xrotation Yrotation
      JOINT RightToe
      {
        OFFSET 0 -40 0
        CHANNELS 3 Zrotation Xrotation Yrotation
        JOINT RightToeEnd
        {
          OFFSET 0 0 0
          CHANNELS 3 Zrotation Xrotation Yrotation
          End Site
          {
            OFFSET 0 0 15
          }
        }
      }
    }
  }
}
MOTION
Frames:	12
Frame Time:	0.0333333
57.305 85.3833 122.762 4.15769 -15.8426 174.661 4.51238 17.5118 6.60512 -7.99469 -38.9613 3.27497 6.45161 -5.90873 1.05792 -57.6196 29.8095 -8.66903 34.1154 -16.635 -49.9272 0.617996 13.4556 0.627406 15.4237 1.44002 65.343 -32.4674 -16.1232 50.4951 0.365708 4.31688 -0.359882 16.6807 -28.1788 18.2337 0.587795 51.9065 -8.56141 1.68332 -24.0393 -5.78312 1.98785e-016 6.36111e-015 -7.95139e-016 0.112747 -29.5399 -17.3237 -0.903646 49.0527 7.68579 -4.50436 -19.357 -9.5371 -7.95139e-016 3.18055e-015 -3.18055e-015 
57.3381 91.7751 118.619 4.28424 -11.7003 177.517 5.1253 12.4764 7.25223 -7.74826 -34.7502 1.91252 5.54131 3.47494 0.28402 -62.7737 37.5956 -0.867979 33.6331 -16.1587 -48.1834 0.806244 13.3804 0.405827 12.4517 6.23532 59.7213 -31.8129 -15.25 49.3475 0.418178 6.69816 -0.449016 13.8696 -19.0555 15.007 0.330712 41.322 -8.5061 0.823274 -4.88607 -6.62503 3.97569e-016 6.36111e-015 -3.97569e-016 0.00250289 -19.1681 -17.9004 -1.81263 38.6431 9.42541 2.06294 -0.865781 -7.61638 -1.59028e-015 -3.18055e-015 -0 
57.0855 98.8852 114.642 4.33751 -8.32893 -177.084 6.14378 7.71575 5.27635 -4.70639 -31.5588 2.1745 2.31322 13.1113 2.66199 -72.9565 41.1622 7.1749 32.3659 -14.4025 -44.2257 1.04416 14.9919 0.0555217 11.3186 13.8773 53.543 -30.7394 -13.8529 46.8716 0.514081 11.0084 -0.552606 10.1144 -11.004 3.28003 0.179119 26.7125 -8.82589 -8.99427 15.3348 12.7898 2.64834e-031 9.54166e-015 -1.59028e-015 1.61119 -10.1951 -8.76249 -0.0796716 26.9578 10.7413 6.3971 2.61805 -32.1042 1.59028e-015 -3.18055e-015 -0 
56.523 105.149 111.339 4.39402 -8.1738 -171.493 5.98997 3.75997 4.93915 0.478031 -28.9801 5.66296 -3.19238 14.4026 8.29404 -79.3924 41.5743 7.93425 29.3421 -10.8909 -37.2716 1.33442 16.9557 -0.197076 16.4443 19.2815 44.1373 -30.1612 -12.9311 45.3478 0.58279 12.2844 -0.639972 7.14966 -12.3058 -6.04861 -0.903825 27.4198 -8.82002 -3.79977 -8.74352 28.7489 -7.95139e-016 -3.18055e-015 -6.36111e-015 1.35428 -11.4172 -7.20688 0.23198 26.0965 10.5893 5.5918 0.368575 -35.2034 -0 -3.18055e-015 -0 
56.115 110.461 108.822 5.79644 -9.70723 -165.607 6.1657 1.9231 6.19446 4.9664 -28.6931 10.0866 -7.73984 14.3034 14.8256 -81.5273 36.2001 0.951078 23.961 -6.52922 -27.2042 1.85043 26.427 -0.682381 26.909 19.5927 30.477 -29.3228 -11.6655 43.0661 0.621791 13.5911 -0.767878 5.98078 -17.5652 -6.62492 -1.85716 29.9567 -8.47353 8.02496 -32.0053 24.8032 3.97569e-016 1.59028e-015 -0 1.85561 -16.6223 -5.14234 0.44871 23.9664 10.1627 8.92328 5.60017 -33.4544 7.95139e-016 -6.36111e-015 -0 
55.9529 114.917 106.958 7.30994 -8.61817 -158.845 7.55931 5.10797 5.59208 8.13217 -29.9639 14.0776 -10.7595 14.4682 21.2063 -84.8842 21.878 -7.66417 17.9545 -3.52097 -17.8279 2.93215 45.2308 -1.81269 35.5614 16.172 18.8415 -26.5276 -9.10201 37.0167 0.75897 20.5274 -0.986532 5.60186 -20.3603 -5.67664 -1.9442 30.0813 -8.37524 8.10626 -33.1379 23.8613 1.59028e-015 -4.77083e-015 3.18055e-015 2.71911 -19.0155 1.85128 0.771095 20.508 9.84115 9.26338 5.16818 -33.684 -1.98785e-016 6.36111e-015 -7.95139e-016 
55.829 117.957 105.189 8.24803 -5.36031 -151.688 11.1143 10.8486 3.33449 8.82789 -32.1097 15.8232 -13.9541 13.8784 24.6085 -89.1592 18.369 -11.6031 16.6282 -3.1129 -16.0761 3.87592 55.7214 -3.19454 39.0869 15.5673 10.6533 -21.6747 -6.21856 27.7088 1.12863 29.0551 -1.37328 4.94228 -20.9584 -6.6136 -1.8869 30.3056 -8.3131 8.30932 -38.1921 19.1766 -1.59028e-015 0 3.18055e-015 2.42625 -18.8944 5.72434 0.719229 16.7076 9.85064 11.7978 9.26354 -32.733 3.97569e-016 0 1.59028e-015 
55.7212 119.575 103.129 7.99107 -2.20965 -142.69 14.9757 14.9228 -0.434666 8.02597 -35.1092 14.764 -15.7132 15.1592 24.5664 -87.2683 32.7614 -14.2265 16.9305 -3.32748 -16.2976 3.1011 46.348 -2.24848 44.7977 16.66 0.924854 -19.4116 -5.29776 23.434 1.70302 40.3132 -1.90491 3.51926 -20.7495 -5.71808 -1.87299 29.7436 -8.25823 7.59902 -39.6633 16.8288 1.59028e-015 -3.18055e-015 -3.18055e-015 0.723191 -18.3654 9.0978 0.487794 15.2065 9.92592 12.4181 10.5648 -31.7958 1.59028e-015 -7.95139e-015 -3.18055e-015 
55.5085 119.93 100.624 8.13222 -1.09624 -133.241 16.9699 13.4623 -3.02482 6.04711 -35.2446 12.0422 -14.5426 16.4213 22.1854 -84.8612 45.3511 -14.5016 17.3062 -3.626 -16.8809 2.74598 40.7009 -1.82284 54.8559 21.35 -11.107 -19.6543 -5.56753 23.3575 1.81902 39.3831 -1.93784 1.95781 -21.6622 -2.9844 -2.08976 28.8557 -8.27693 6.64658 -34.45 20.9303 3.18055e-015 0 9.54166e-015 -1.50958 -18.832 12.885 0.222371 14.638 9.86178 11.8407 9.03452 -32.2713 1.59028e-015 1.59028e-015 3.18055e-015 
55.4101 118.959 97.8779 8.82664 -0.389163 -124.705 17.2749 10.6299 -5.25654 4.03864 -34.6751 9.59499 -10.6953 16.1064 19.8615 -84.6091 49.9982 -12.9283 17.6137 -3.88226 -17.4039 2.75998 40.6863 -1.89948 66.8876 24.2735 -20.1916 -19.6098 -5.66296 22.9117 1.91052 37.7951 -1.8906 0.809428 -22.6089 -1.67413 -2.23573 28.2303 -8.21775 6.33296 -32.2916 23.1936 -1.59028e-015 0 -3.18055e-015 -3.29816 -19.4311 14.8998 0.0811506 14.0818 9.7829 11.5959 8.16718 -32.711 2.78299e-015 2.38542e-015 6.36111e-015 
55.4461 116.813 95.1232 8.97699 1.10706 -118.25 16.8237 9.17274 -6.85505 2.09293 -35.9275 6.88319 -6.64153 18.2628 16.7477 -84.945 48.6774 -11.8639 17.3081 -3.71755 -16.8056 2.8545 42.2961 -2.05633 77.3077 24.2081 -25.359 -18.9929 -5.4797 21.922 2.01004 37.3766 -1.82628 0.579403 -22.4826 -0.858593 -2.24989 28.2403 -8.22991 5.55977 -29.5569 24.8213 -1.59028e-015 3.18055e-015 1.59028e-015 -4.46524 -19.0659 13.1144 0.162789 13.4116 9.98047 12.4671 10.0477 -30.4173 -3.57812e-015 1.19271e-015 3.18055e-015 
55.5995 113.384 92.2058 8.21726 2.91402 -113.595 14.9394 9.137 -7.08779 -0.862532 -36.8079 4.0788 -0.996278 19.6234 12.6724 -83.8012 46.6576 -10.8283 17.5666 -3.79469 -17.1533 2.8338 42.3886 -2.04455 86.948 23.5862 -28.4135 -18.0941 -5.15848 20.9306 1.95121 37.7074 -1.69653 0.9385 -20.9509 -0.923734 -2.1734 27.9443 -8.28705 3.88541 -24.4456 28.1236 -2.89663e-032 2.08724e-015 7.95139e-016 -4.51642 -17.393 12.5109 0.126108 12.7257 10.0547 10.6694 6.84164 -29.1112 -3.97569e-016 -5.46658e-016 -3.18055e-015 
